#!OML:ASF F:\VICON\USERDATA\INSTALL\rory3\rory3.ASF
:FULLY-SPECIFIED
:DEGREES
62
root 0.602107082791934 17.628283885420263 25.867532751578118 -1.5397142600986002 -4.075945598595311 -6.382801543477418
lfemur -25.18529102982242 -3.567279810370808 -13.125599711119719
ltibia 20.860087135524694
lfoot -5.691483131242375 1.788219700659326
ltoes -1.1350262098710875
rfemur 7.225060119179448 3.9471294136280877 32.33938630461505
rtibia 35.04077525829894
rfoot -5.423984910760407 -4.7654506045057135
rtoes 2.7132077139719013
lowerback 10.006905049544395 2.394827171658087 5.818323556211076
upperback -0.43978570766082997 4.014099046843337 1.8811958379131803
thorax -5.914683100708373 1.7764898143558803 -2.319280988978621
lowerneck -16.632949159207588 -3.707390977852201 -1.6375965219880493
upperneck 20.2110425250959 -5.552211625823849 2.8052156827779893
head 9.090292695322292 -2.3269625332176656 0.5066126289697959
lclavicle 2.9911140331468115e-16 5.5314561518386064e-17
lhumerus -37.29734902541424 14.067061945789936 76.34886236887844
lradius 15.705862704147762
lwrist -0.9762249713092315
lhand -28.4591900565445 20.783274630053956
lfingers 7.125020000000001
lthumb -1.6992409347998914 51.1653989449015
rclavicle 2.991114032397301e-16 5.531456146489511e-17
rhumerus -26.21041464812671 -16.758339757803295 -78.58303456404398
rradius 31.64202663385062
rwrist -0.7445327425119594
rhand -18.55949466198394 24.30971596586508
rfingers 7.125020000000001
rthumb 7.787120584940883 -5.39304294918788
63
root 0.6780616778804119 17.690641016669684 26.696797588455517 -2.467063176053978 -3.8241633540987356 -5.601923494380241
lfemur -24.10352047418217 -2.9250162554065104 -14.647515058707903
ltibia 24.794928709081873
lfoot -5.435362582970784 0.09261085764479571
ltoes 1.6509456336127144
rfemur 5.267815180013253 2.69693377032121 30.7567250798453
rtibia 41.72720365771646
rfoot -1.3154548229026766 -3.348662003797501
rtoes 7.275009331168268
lowerback 10.040713418088826 2.4119471479521484 5.127303630595547
upperback -0.3456468880253035 3.9762370131618683 1.7076231987619295
thorax -5.775275982444041 1.7825626478814194 -2.128846889673886
lowerneck -16.43990122285528 -3.7637132022872235 -1.7037128950554055
upperneck 20.407284877501688 -5.669128496915249 2.9310177978893255
head 9.145243817845326 -2.378349618644864 0.5566228840642785
lclavicle 2.991114033227974e-16 5.5314561525236027e-17
lhumerus -37.59408887268851 14.815406183822065 75.54280905932399
lradius 15.298995067698218
lwrist -2.064507826752501
lhand -28.196393788421364 22.381004403674236
lfingers 7.125020000000001
lthumb -1.6104522482549366 52.16316521645173
rclavicle 2.991114032363493e-16 5.531456146364299e-17
rhumerus -27.011389792312947 -17.196907082287627 -78.42935361011746
rradius 31.434336920506126
rwrist -0.5648007543574827
rhand -18.551410004213505 24.173820224866237
rfingers 7.125020000000001
rthumb 7.8351231665248156 -5.470258546503391
64
root 0.7413271584434792 17.764388179405195 26.731727115400037 -3.2448397912113185 -3.8406237325434223 -4.861173801857851
lfemur -22.420125927659353 -2.206597828994744 -16.442511060406837
ltibia 27.64622980057583
lfoot -5.809151213180252 -1.023879496174531
ltoes 3.4093383903205083
rfemur 2.302760310481501 1.4790671515097928 29.213294733518474
rtibia 50.17914895604758
rfoot 4.328539474077394 -2.3609056783490416
rtoes 14.617920909507536
lowerback 10.2414604771735 2.3916906001723337 4.2720531220206714
upperback -0.27037822689413454 3.83962134129389 1.503409220870101
thorax -5.80277873465767 1.741828699277269 -1.8293714428863252
lowerneck -16.319358150387778 -3.79334157846179 -1.7920246072682646
upperneck 20.59647685094193 -5.704989722694646 2.952946807398263
head 9.211416858231765 -2.401113878237413 0.57231032674901
lclavicle 2.991114033297094e-16 5.5314561530986484e-17
lhumerus -37.83766057327459 14.88459899216464 75.39421529384467
lradius 15.475769842395168
lwrist -2.028121163328229
lhand -28.427997540893397 19.428871355021556
lfingers 7.125020000000001
lthumb -1.5680398308064467 50.15739191765809
rclavicle 2.991114032413847e-16 5.531456146823889e-17
rhumerus -27.954092237320943 -17.77411604410309 -78.23289089242486
rradius 31.072903725264517
rwrist -0.14108946526844957
rhand -18.62906205929752 23.673385793284783
rfingers 7.125020000000001
rthumb 7.774376230416785 -5.897557052396133
65
root 0.8031099812905723 17.833937354358937 27.476650086114567 -3.745851676354686 -3.7691939239132966 -3.8067007177322703
lfemur -19.63598520030679 -1.4841706387986076 -18.390318561659583
ltibia 29.415610964098853
lfoot -7.493057408732398 -0.8197260313053127
ltoes 4.748194119095338
rfemur -1.9925958621457944 0.3307544658050656 27.265452051826085
rtibia 59.417163682203736
rfoot 10.025561871917365 -2.3024460853088513
rtoes 20.260621439488634
lowerback 10.436482168672462 2.2863087011035645 3.202208865721909
upperback -0.15915741332978345 3.6019805825301408 1.2727099849237988
thorax -5.8138896557534325 1.6568678004819344 -1.4433858252025045
lowerneck -16.26939685171786 -3.7693196116234677 -1.919163111530562
upperneck 20.65133222299833 -5.64716088834529 2.992998107212304
head 9.224992126850548 -2.388473955200775 0.6134962496109184
lclavicle 2.9911140332686826e-16 5.531456153021033e-17
lhumerus -37.5763207297122 13.76266602016373 76.07882346192902
lradius 16.510590356397657
lwrist -0.21765050244956186
lhand -27.70813621094596 20.910026928664184
lfingers 7.125020000000001
lthumb -1.1401551543858153 50.957073515342316
rclavicle 2.991114032384328e-16 5.53145614671302e-17
rhumerus -28.82416404541904 -18.46370541208139 -77.90512154525962
rradius 30.670532508754363
rwrist 0.2573100115584994
rhand -18.589454695625715 23.409698415469236
rfingers 7.125020000000001
rthumb 7.760518209373549 -6.2503175623876075
